<mxfile host="app.diagrams.net" modified="2024-02-17T09:11:03.912Z" agent="Mozilla/5.0 (Windows NT 10.0; Win64; x64) AppleWebKit/537.36 (KHTML, like Gecko) Chrome/121.0.0.0 Safari/537.36" etag="jMCZcrsACUUvNBKlUkTE" version="23.1.1" type="device">
  <diagram name="ページ1" id="lVFU18Zzv5_XQMhs6GIi">
    <mxGraphModel dx="1417" dy="1086" grid="0" gridSize="10" guides="1" tooltips="1" connect="1" arrows="1" fold="1" page="0" pageScale="1" pageWidth="827" pageHeight="1169" math="0" shadow="0">
      <root>
        <mxCell id="0" />
        <mxCell id="1" parent="0" />
        <mxCell id="OB_F4tkQZsXyVnLB633A-1" value="AWS Cloud" style="points=[[0,0],[0.25,0],[0.5,0],[0.75,0],[1,0],[1,0.25],[1,0.5],[1,0.75],[1,1],[0.75,1],[0.5,1],[0.25,1],[0,1],[0,0.75],[0,0.5],[0,0.25]];outlineConnect=0;gradientColor=none;html=1;whiteSpace=wrap;fontSize=12;fontStyle=0;container=1;pointerEvents=0;collapsible=0;recursiveResize=0;shape=mxgraph.aws4.group;grIcon=mxgraph.aws4.group_aws_cloud_alt;strokeColor=#232F3E;fillColor=none;verticalAlign=top;align=left;spacingLeft=30;fontColor=#232F3E;dashed=0;" vertex="1" parent="1">
          <mxGeometry x="55" y="-63" width="592" height="439" as="geometry" />
        </mxCell>
        <mxCell id="OB_F4tkQZsXyVnLB633A-2" value="VPC" style="points=[[0,0],[0.25,0],[0.5,0],[0.75,0],[1,0],[1,0.25],[1,0.5],[1,0.75],[1,1],[0.75,1],[0.5,1],[0.25,1],[0,1],[0,0.75],[0,0.5],[0,0.25]];outlineConnect=0;gradientColor=none;html=1;whiteSpace=wrap;fontSize=12;fontStyle=0;container=1;pointerEvents=0;collapsible=0;recursiveResize=0;shape=mxgraph.aws4.group;grIcon=mxgraph.aws4.group_vpc2;strokeColor=#8C4FFF;fillColor=none;verticalAlign=top;align=left;spacingLeft=30;fontColor=#AAB7B8;dashed=0;" vertex="1" parent="OB_F4tkQZsXyVnLB633A-1">
          <mxGeometry x="150" y="41" width="389" height="369" as="geometry" />
        </mxCell>
        <mxCell id="OB_F4tkQZsXyVnLB633A-5" value="Private subnet" style="points=[[0,0],[0.25,0],[0.5,0],[0.75,0],[1,0],[1,0.25],[1,0.5],[1,0.75],[1,1],[0.75,1],[0.5,1],[0.25,1],[0,1],[0,0.75],[0,0.5],[0,0.25]];outlineConnect=0;gradientColor=none;html=1;whiteSpace=wrap;fontSize=12;fontStyle=0;container=1;pointerEvents=0;collapsible=0;recursiveResize=0;shape=mxgraph.aws4.group;grIcon=mxgraph.aws4.group_security_group;grStroke=0;strokeColor=#00A4A6;fillColor=#E6F6F7;verticalAlign=top;align=left;spacingLeft=30;fontColor=#147EBA;dashed=0;" vertex="1" parent="OB_F4tkQZsXyVnLB633A-2">
          <mxGeometry x="103" y="70" width="256" height="105" as="geometry" />
        </mxCell>
        <mxCell id="OB_F4tkQZsXyVnLB633A-6" value="Private subnet" style="points=[[0,0],[0.25,0],[0.5,0],[0.75,0],[1,0],[1,0.25],[1,0.5],[1,0.75],[1,1],[0.75,1],[0.5,1],[0.25,1],[0,1],[0,0.75],[0,0.5],[0,0.25]];outlineConnect=0;gradientColor=none;html=1;whiteSpace=wrap;fontSize=12;fontStyle=0;container=1;pointerEvents=0;collapsible=0;recursiveResize=0;shape=mxgraph.aws4.group;grIcon=mxgraph.aws4.group_security_group;grStroke=0;strokeColor=#00A4A6;fillColor=#E6F6F7;verticalAlign=top;align=left;spacingLeft=30;fontColor=#147EBA;dashed=0;" vertex="1" parent="OB_F4tkQZsXyVnLB633A-2">
          <mxGeometry x="103" y="199" width="256" height="101" as="geometry" />
        </mxCell>
        <mxCell id="OB_F4tkQZsXyVnLB633A-12" value="Security group" style="fillColor=none;strokeColor=#DD3522;verticalAlign=top;fontStyle=0;fontColor=#DD3522;whiteSpace=wrap;html=1;fontSize=16;" vertex="1" parent="OB_F4tkQZsXyVnLB633A-2">
          <mxGeometry x="6" y="34" width="89" height="291" as="geometry" />
        </mxCell>
        <mxCell id="OB_F4tkQZsXyVnLB633A-13" value="" style="sketch=0;outlineConnect=0;fontColor=#232F3E;gradientColor=none;fillColor=#8C4FFF;strokeColor=none;dashed=0;verticalLabelPosition=bottom;verticalAlign=top;align=center;html=1;fontSize=12;fontStyle=0;aspect=fixed;pointerEvents=1;shape=mxgraph.aws4.route_table;" vertex="1" parent="OB_F4tkQZsXyVnLB633A-2">
          <mxGeometry x="326" y="309" width="49.26" height="48" as="geometry" />
        </mxCell>
        <mxCell id="OB_F4tkQZsXyVnLB633A-8" value="Security group" style="fillColor=none;strokeColor=#DD3522;verticalAlign=top;fontStyle=0;fontColor=#DD3522;whiteSpace=wrap;html=1;fontSize=16;" vertex="1" parent="OB_F4tkQZsXyVnLB633A-2">
          <mxGeometry x="170" y="34" width="130" height="290" as="geometry" />
        </mxCell>
        <mxCell id="OB_F4tkQZsXyVnLB633A-7" value="" style="sketch=0;points=[[0,0,0],[0.25,0,0],[0.5,0,0],[0.75,0,0],[1,0,0],[0,1,0],[0.25,1,0],[0.5,1,0],[0.75,1,0],[1,1,0],[0,0.25,0],[0,0.5,0],[0,0.75,0],[1,0.25,0],[1,0.5,0],[1,0.75,0]];outlineConnect=0;fontColor=#232F3E;fillColor=#C925D1;strokeColor=#ffffff;dashed=0;verticalLabelPosition=bottom;verticalAlign=top;align=center;html=1;fontSize=12;fontStyle=0;aspect=fixed;shape=mxgraph.aws4.resourceIcon;resIcon=mxgraph.aws4.rds;" vertex="1" parent="OB_F4tkQZsXyVnLB633A-2">
          <mxGeometry x="204" y="100" width="54" height="54" as="geometry" />
        </mxCell>
        <mxCell id="OB_F4tkQZsXyVnLB633A-3" value="" style="sketch=0;points=[[0,0,0],[0.25,0,0],[0.5,0,0],[0.75,0,0],[1,0,0],[0,1,0],[0.25,1,0],[0.5,1,0],[0.75,1,0],[1,1,0],[0,0.25,0],[0,0.5,0],[0,0.75,0],[1,0.25,0],[1,0.5,0],[1,0.75,0]];outlineConnect=0;fontColor=#232F3E;fillColor=#ED7100;strokeColor=#ffffff;dashed=0;verticalLabelPosition=bottom;verticalAlign=top;align=center;html=1;fontSize=12;fontStyle=0;aspect=fixed;shape=mxgraph.aws4.resourceIcon;resIcon=mxgraph.aws4.app_runner;" vertex="1" parent="OB_F4tkQZsXyVnLB633A-1">
          <mxGeometry x="73.5" y="190" width="53" height="53" as="geometry" />
        </mxCell>
        <mxCell id="OB_F4tkQZsXyVnLB633A-4" value="" style="sketch=0;points=[[0,0,0],[0.25,0,0],[0.5,0,0],[0.75,0,0],[1,0,0],[0,1,0],[0.25,1,0],[0.5,1,0],[0.75,1,0],[1,1,0],[0,0.25,0],[0,0.5,0],[0,0.75,0],[1,0.25,0],[1,0.5,0],[1,0.75,0]];outlineConnect=0;fontColor=#232F3E;fillColor=#ED7100;strokeColor=#ffffff;dashed=0;verticalLabelPosition=bottom;verticalAlign=top;align=center;html=1;fontSize=12;fontStyle=0;aspect=fixed;shape=mxgraph.aws4.resourceIcon;resIcon=mxgraph.aws4.ecr;" vertex="1" parent="OB_F4tkQZsXyVnLB633A-1">
          <mxGeometry x="73" y="63" width="54" height="54" as="geometry" />
        </mxCell>
        <mxCell id="OB_F4tkQZsXyVnLB633A-15" value="" style="edgeStyle=orthogonalEdgeStyle;html=1;endArrow=block;elbow=vertical;startArrow=none;endFill=1;strokeColor=#545B64;rounded=0;fontSize=12;startSize=8;endSize=8;curved=1;exitX=1;exitY=0.5;exitDx=0;exitDy=0;exitPerimeter=0;entryX=0;entryY=0.5;entryDx=0;entryDy=0;entryPerimeter=0;" edge="1" parent="OB_F4tkQZsXyVnLB633A-1" source="OB_F4tkQZsXyVnLB633A-3" target="OB_F4tkQZsXyVnLB633A-7">
          <mxGeometry width="100" relative="1" as="geometry">
            <mxPoint x="293" y="282" as="sourcePoint" />
            <mxPoint x="393" y="282" as="targetPoint" />
          </mxGeometry>
        </mxCell>
        <mxCell id="OB_F4tkQZsXyVnLB633A-16" value="" style="edgeStyle=orthogonalEdgeStyle;html=1;endArrow=block;elbow=vertical;startArrow=none;endFill=1;strokeColor=#545B64;rounded=0;fontSize=12;startSize=8;endSize=8;curved=1;exitX=0.5;exitY=1;exitDx=0;exitDy=0;exitPerimeter=0;entryX=0.5;entryY=0;entryDx=0;entryDy=0;entryPerimeter=0;" edge="1" parent="OB_F4tkQZsXyVnLB633A-1" source="OB_F4tkQZsXyVnLB633A-4" target="OB_F4tkQZsXyVnLB633A-3">
          <mxGeometry width="100" relative="1" as="geometry">
            <mxPoint x="293" y="282" as="sourcePoint" />
            <mxPoint x="393" y="282" as="targetPoint" />
          </mxGeometry>
        </mxCell>
        <mxCell id="OB_F4tkQZsXyVnLB633A-29" value="" style="sketch=0;outlineConnect=0;fontColor=#232F3E;gradientColor=none;fillColor=#DD344C;strokeColor=none;dashed=0;verticalLabelPosition=bottom;verticalAlign=top;align=center;html=1;fontSize=12;fontStyle=0;aspect=fixed;pointerEvents=1;shape=mxgraph.aws4.role;" vertex="1" parent="OB_F4tkQZsXyVnLB633A-1">
          <mxGeometry x="79" y="251" width="42" height="23.69" as="geometry" />
        </mxCell>
        <mxCell id="OB_F4tkQZsXyVnLB633A-14" value="" style="dashed=0;outlineConnect=0;html=1;align=center;labelPosition=center;verticalLabelPosition=bottom;verticalAlign=top;shape=mxgraph.weblogos.github;fontSize=16;" vertex="1" parent="1">
          <mxGeometry x="117.5" y="-193" width="75" height="75" as="geometry" />
        </mxCell>
        <mxCell id="OB_F4tkQZsXyVnLB633A-17" value="" style="edgeStyle=orthogonalEdgeStyle;html=1;endArrow=block;elbow=vertical;startArrow=none;endFill=1;strokeColor=#545B64;rounded=0;fontSize=12;startSize=8;endSize=8;curved=1;entryX=0.5;entryY=0;entryDx=0;entryDy=0;entryPerimeter=0;" edge="1" parent="1" source="OB_F4tkQZsXyVnLB633A-14" target="OB_F4tkQZsXyVnLB633A-4">
          <mxGeometry width="100" relative="1" as="geometry">
            <mxPoint x="421" y="214" as="sourcePoint" />
            <mxPoint x="521" y="214" as="targetPoint" />
          </mxGeometry>
        </mxCell>
        <mxCell id="OB_F4tkQZsXyVnLB633A-18" value="" style="sketch=0;outlineConnect=0;fontColor=#232F3E;gradientColor=none;fillColor=#232F3D;strokeColor=none;dashed=0;verticalLabelPosition=bottom;verticalAlign=top;align=center;html=1;fontSize=12;fontStyle=0;aspect=fixed;pointerEvents=1;shape=mxgraph.aws4.user;" vertex="1" parent="1">
          <mxGeometry x="463" y="-182" width="53" height="53" as="geometry" />
        </mxCell>
        <mxCell id="OB_F4tkQZsXyVnLB633A-19" value="" style="edgeStyle=orthogonalEdgeStyle;html=1;endArrow=none;elbow=vertical;startArrow=block;startFill=1;strokeColor=#545B64;rounded=0;fontSize=12;startSize=8;endSize=8;curved=1;" edge="1" parent="1" source="OB_F4tkQZsXyVnLB633A-14" target="OB_F4tkQZsXyVnLB633A-18">
          <mxGeometry width="100" relative="1" as="geometry">
            <mxPoint x="421" y="32" as="sourcePoint" />
            <mxPoint x="521" y="32" as="targetPoint" />
          </mxGeometry>
        </mxCell>
        <mxCell id="OB_F4tkQZsXyVnLB633A-20" value="" style="sketch=0;outlineConnect=0;fontColor=#232F3E;gradientColor=none;fillColor=#232F3D;strokeColor=none;dashed=0;verticalLabelPosition=bottom;verticalAlign=top;align=center;html=1;fontSize=12;fontStyle=0;aspect=fixed;pointerEvents=1;shape=mxgraph.aws4.user;" vertex="1" parent="1">
          <mxGeometry x="-62.5" y="127" width="53" height="53" as="geometry" />
        </mxCell>
        <mxCell id="OB_F4tkQZsXyVnLB633A-21" value="" style="edgeStyle=orthogonalEdgeStyle;html=1;endArrow=block;elbow=vertical;startArrow=none;endFill=1;strokeColor=#545B64;rounded=0;fontSize=12;startSize=8;endSize=8;curved=1;entryX=0;entryY=0.5;entryDx=0;entryDy=0;entryPerimeter=0;" edge="1" parent="1" source="OB_F4tkQZsXyVnLB633A-20" target="OB_F4tkQZsXyVnLB633A-3">
          <mxGeometry width="100" relative="1" as="geometry">
            <mxPoint x="250" y="138" as="sourcePoint" />
            <mxPoint x="350" y="138" as="targetPoint" />
          </mxGeometry>
        </mxCell>
        <mxCell id="OB_F4tkQZsXyVnLB633A-23" value="Users" style="text;html=1;strokeColor=none;fillColor=none;align=center;verticalAlign=middle;whiteSpace=wrap;rounded=0;fontSize=16;" vertex="1" parent="1">
          <mxGeometry x="-69.5" y="181" width="60" height="30" as="geometry" />
        </mxCell>
        <mxCell id="OB_F4tkQZsXyVnLB633A-24" value="Developer" style="text;html=1;strokeColor=none;fillColor=none;align=center;verticalAlign=middle;whiteSpace=wrap;rounded=0;fontSize=16;" vertex="1" parent="1">
          <mxGeometry x="443.5" y="-214" width="92" height="30" as="geometry" />
        </mxCell>
        <mxCell id="OB_F4tkQZsXyVnLB633A-25" value="GitHub Actions" style="text;html=1;strokeColor=none;fillColor=none;align=center;verticalAlign=middle;whiteSpace=wrap;rounded=0;fontSize=16;" vertex="1" parent="1">
          <mxGeometry x="96.5" y="-226" width="117" height="30" as="geometry" />
        </mxCell>
        <mxCell id="OB_F4tkQZsXyVnLB633A-26" value="" style="edgeStyle=orthogonalEdgeStyle;html=1;endArrow=block;elbow=vertical;startArrow=none;endFill=1;strokeColor=#545B64;rounded=0;fontSize=12;startSize=8;endSize=8;curved=1;" edge="1" parent="1" source="OB_F4tkQZsXyVnLB633A-18" target="OB_F4tkQZsXyVnLB633A-1">
          <mxGeometry width="100" relative="1" as="geometry">
            <mxPoint x="404" y="83" as="sourcePoint" />
            <mxPoint x="490" y="-66" as="targetPoint" />
            <Array as="points">
              <mxPoint x="487" y="-53" />
              <mxPoint x="487" y="-53" />
            </Array>
          </mxGeometry>
        </mxCell>
        <mxCell id="OB_F4tkQZsXyVnLB633A-27" value="Terraform" style="text;html=1;strokeColor=none;fillColor=none;align=center;verticalAlign=middle;whiteSpace=wrap;rounded=0;fontSize=16;" vertex="1" parent="1">
          <mxGeometry x="493" y="-118" width="92" height="30" as="geometry" />
        </mxCell>
      </root>
    </mxGraphModel>
  </diagram>
</mxfile>
